<?xml version="1.0" encoding="UTF-8" standalone="no"?>
<svg
   xmlns:dc="http://purl.org/dc/elements/1.1/"
   xmlns:cc="http://creativecommons.org/ns#"
   xmlns:rdf="http://www.w3.org/1999/02/22-rdf-syntax-ns#"
   xmlns:svg="http://www.w3.org/2000/svg"
   xmlns="http://www.w3.org/2000/svg"
   viewBox="0 0 929.33331 1110.6667"
   height="1110.6667"
   width="929.33331"
   xml:space="preserve"
   id="svg2"
   version="1.1"><metadata
     id="metadata8"><rdf:RDF><cc:Work
         rdf:about=""><dc:format>image/svg+xml</dc:format><dc:type
           rdf:resource="http://purl.org/dc/dcmitype/StillImage" /></cc:Work></rdf:RDF></metadata><defs
     id="defs6"><clipPath
       id="clipPath18"
       clipPathUnits="userSpaceOnUse"><path
         id="path16"
         d="M 0,833 H 697 V 0 H 0 Z" /></clipPath></defs><g
     transform="matrix(1.3333333,0,0,-1.3333333,0,1110.6667)"
     id="g10"><g
       id="g12"><g
         clip-path="url(#clipPath18)"
         id="g14"><g
           transform="translate(372.25,738.78)"
           id="g20"><path
             id="path22"
             style="fill:#2f6bff;fill-opacity:1;fill-rule:nonzero;stroke:none"
             d="m 0,0 c -69.98,-30.64 -135.14,-73.6 -187.5,-129.53 -24,-25.75 -46.35,-53.33 -64.07,-83.84 -14.36,-25.19 -25.69,-53.44 -24.8,-82.91 0.33,-17.71 5.49,-35.47 15.44,-50.2 11.12,-16.48 28.25,-28.01 46.47,-35.39 22.39,-8.99 46.6,-13.3 70.71,-12.92 25.18,0.1 50.16,3.97 74.91,8.31 36.11,6.71 72.43,14.38 106.28,29.02 -5.17,-1.05 -10,-3.35 -15.17,-4.44 -37.55,-11.03 -77.94,-12.16 -116.05,-3.21 -55.03,12.62 -104.91,46.48 -136.61,93.24 17.77,0.39 35.57,0.03 53.34,0.18 29.52,-30.69 69.66,-51.25 112.05,-56.09 -3.21,2.95 -6.89,5.31 -10.34,7.94 -22.01,16.28 -44.02,32.55 -66.04,48.81 -11.07,8.36 -22.49,16.28 -33.34,24.9 22.95,0.06 45.92,0.09 68.87,-0.01 21.3,-27.98 42.46,-56.09 64.01,-83.87 21.32,27.98 42.6,56 63.98,83.94 22.92,-0.07 45.84,0.08 68.76,-0.08 -2.4,-2.23 -5.21,-3.95 -7.79,-5.95 -31.6,-23.36 -63.21,-46.71 -94.81,-70.07 -2.37,-1.75 -4.88,-3.36 -6.9,-5.53 42.22,4.76 82.13,25.36 111.62,55.8 14.39,0.43 28.86,0.13 43.29,0.14 21.24,28.84 35.05,63.09 39.99,98.55 5.71,40.46 0.03,82.47 -16.48,119.87 C 144.91,-19.16 120.95,10.9 91.3,33.48 60.26,24.1 29.69,13.09 0,0 m 204.58,93.72 h 8.37 c 6.68,-1.21 13.31,-3.38 18.83,-7.45 10.39,-7.32 16.57,-19.95 16.38,-32.62 9.34,-4.17 18.36,-9.16 26.35,-15.59 12.72,-10.02 22.75,-23.46 28.46,-38.63 6.05,-15.77 7.61,-32.97 6.24,-49.71 -1.73,-19.44 -7.1,-38.41 -14.47,-56.44 -14.81,-35.58 -36.5,-67.98 -61.39,-97.26 5.54,9.52 12.35,18.23 18.02,27.68 13.37,21.92 26.43,44.26 35.38,68.42 6.28,17.12 10.51,35.24 10.25,53.56 0.25,19.51 -4.13,39.47 -14.68,56.06 -9.45,14.59 -23.68,25.7 -39.41,32.84 -2.09,-3.32 -4.37,-6.57 -7.28,-9.23 -11.71,-11.16 -30.53,-13.44 -44.76,-5.93 -10.61,5.32 -18.2,15.74 -20.64,27.3 -23.3,-1.04 -46.26,-5.64 -69.07,-10.21 8.33,-7.28 16.79,-14.49 24.22,-22.73 25.04,-26.8 43.41,-59.74 53.14,-95.1 11.47,-41.25 10.97,-85.73 -1.42,-126.71 -10.91,-36.48 -31.09,-70.15 -58.22,-96.87 -17.22,-17.07 -37.14,-31.6 -59.32,-41.51 0.1,-0.42 0.3,-1.25 0.39,-1.66 -49.27,-29.2 -101.94,-53.05 -157.13,-68.62 -39.79,-11.02 -81.18,-18.08 -122.58,-15.67 -25.87,1.61 -52.11,7.18 -74.68,20.4 -17.21,9.98 -31.61,25.17 -39.38,43.6 -9.38,21.97 -9.94,46.82 -5.24,69.99 4.51,23.12 13.46,45.16 24.45,65.91 16.64,31.06 37.97,59.4 61.49,85.55 45.88,50.63 100.23,93.2 158.75,128.29 56.28,33.37 116.86,60.27 180.68,75.41 27.95,6.51 56.56,10.63 85.29,10.61 2.24,5.13 4.9,10.17 8.88,14.17 6.31,6.74 15.09,10.64 24.1,12.15" /></g><g
           transform="translate(193.29,779.73)"
           id="g24"><path
             id="path26"
             style="fill:#2f6bff;fill-opacity:1;fill-rule:nonzero;stroke:none"
             d="m 0,0 c 46.22,34.81 106.04,51.19 163.51,44.01 0.24,-0.18 0.73,-0.52 0.97,-0.7 C 95.33,15.82 30.54,-22.26 -28.12,-67.98 -46.31,-82.22 -63.8,-97.34 -80.68,-113.13 -66.39,-68.26 -37.8,-28.09 0,0" /></g><g
           transform="translate(269.5,771.3799)"
           id="g28"><path
             id="path30"
             style="fill:#2f6bff;fill-opacity:1;fill-rule:nonzero;stroke:none"
             d="m 0,0 c 33.99,19.17 69.39,35.82 105.92,49.57 4.65,-1.13 9.29,-2.39 14.02,-3.19 -1.24,-1.9 -3.98,-1.75 -5.84,-2.72 -65.38,-23.8 -127.07,-57.32 -183.52,-97.91 -28.43,-20.56 -55.58,-42.93 -80.76,-67.36 -4.85,-4.56 -9.31,-9.51 -14.24,-13.99 0.78,5.14 1.07,10.83 3.71,15.35 C -112.85,-73.2 -58.35,-33.06 0,0" /></g><g
           transform="translate(286.9199,761.98)"
           id="g32"><path
             id="path34"
             style="fill:#2f6bff;fill-opacity:1;fill-rule:nonzero;stroke:none"
             d="m 0,0 c 36.33,19.86 74.28,36.83 113.53,50.05 5.16,2.56 10.07,-2 15.11,-2.95 -0.49,-1.88 -2.86,-1.64 -4.31,-2.33 C 84.97,32.33 47.01,15.7 10.6,-3.69 c -58.88,-31.54 -113.88,-70.53 -162.44,-116.45 -11.51,-10.96 -22.67,-22.3 -33.28,-34.14 0.36,4.51 0.36,9.03 1.1,13.5 C -130.86,-84.26 -67.89,-37.35 0,0" /></g><g
           transform="translate(341.4502,638.2798)"
           id="g36"><path
             id="path38"
             style="fill:#2f6bff;fill-opacity:1;fill-rule:nonzero;stroke:none"
             d="M 0,0 C 12.06,7.28 24.65,13.8 37.81,18.83 62.43,-4.15 79.78,-34.93 86.9,-67.84 80.18,-68.42 73.52,-69.58 66.9,-70.85 49.17,-43.4 26.46,-19.21 0,0" /></g><g
           transform="translate(232.1201,570.5)"
           id="g40"><path
             id="path42"
             style="fill:#2f6bff;fill-opacity:1;fill-rule:nonzero;stroke:none"
             d="M 0,0 C 7.46,32.91 24.66,63.58 49.23,86.75 62.3,81.46 74.92,75.12 87,67.86 60.78,48.45 37.79,24.57 20.3,-3.03 13.56,-1.85 6.82,-0.64 0,0" /></g><g
           transform="translate(265.3701,564.6401)"
           id="g44"><path
             id="path46"
             style="fill:#2f6bff;fill-opacity:1;fill-rule:nonzero;stroke:none"
             d="m 0,0 c 16.99,26.13 39.38,48.69 65,66.4 24.84,-17.28 46.56,-39.07 63.52,-64.15 0.31,-0.57 0.94,-1.72 1.25,-2.3 C 107.41,-5.02 85.65,-12.78 65.05,-22.78 44.26,-12.9 22.49,-4.97 0,0" /></g><g
           transform="translate(178.0601,560.1001)"
           id="g48"><path
             id="path50"
             style="fill:#2f6bff;fill-opacity:1;fill-rule:nonzero;stroke:none"
             d="m 0,0 c 13.16,1.14 26.37,0.34 39.53,-0.35 -2.3,-18.15 -2.6,-36.66 0.39,-54.74 -11.48,0.07 -22.95,-0.1 -34.43,0.08 C -6.29,-39.54 -8.88,-17.44 0,0" /></g><g
           transform="translate(443.0098,559.7202)"
           id="g52"><path
             id="path54"
             style="fill:#2f6bff;fill-opacity:1;fill-rule:nonzero;stroke:none"
             d="M 0,0 C 5.5,0.35 11.01,0.61 16.52,0.79 24.21,1.47 31.9,0.52 39.6,0.54 c 7.08,-14.5 7.12,-32.14 -0.28,-46.51 -1.74,-2.98 -3.1,-6.52 -5.83,-8.69 -11.22,-0.15 -22.44,0.04 -33.66,-0.08 C 2.4,-36.61 2.52,-18.15 0,0" /></g><g
           transform="translate(229.8301,558.4102)"
           id="g56"><path
             id="path58"
             style="fill:#2f6bff;fill-opacity:1;fill-rule:nonzero;stroke:none"
             d="M 0,0 C 5.28,-0.4 10.51,-1.32 15.74,-2.12 10.43,-12.27 5.1,-22.44 0.99,-33.14 0.36,-34.85 -0.38,-36.5 -1.24,-38.1 -2.41,-25.42 -1.68,-12.61 0,0" /></g><g
           transform="translate(414.9199,555.98)"
           id="g60"><path
             id="path62"
             style="fill:#2f6bff;fill-opacity:1;fill-rule:nonzero;stroke:none"
             d="m 0,0 c 5.17,1.43 10.57,1.96 15.91,2.31 1.7,-12.59 2.21,-25.33 1.41,-38.02 -0.27,0.42 -0.81,1.27 -1.08,1.7 C 11.6,-22.33 6.45,-10.8 0,0" /></g><g
           transform="translate(258.4502,553.8198)"
           id="g64"><path
             id="path66"
             style="fill:#2f6bff;fill-opacity:1;fill-rule:nonzero;stroke:none"
             d="m 0,0 c 19.72,-4.42 38.97,-10.78 57.56,-18.7 -1.67,-1.86 -4.08,-2.74 -6.17,-4 -12.89,-7.44 -25.28,-15.75 -36.97,-24.97 -0.92,-0.8 -2.04,-1.36 -3.29,-1.18 -11.02,0.02 -22.03,0.07 -33.04,-0.02 C -16.54,-31.81 -8.98,-15.47 0,0" /></g><g
           transform="translate(344.4399,535.0098)"
           id="g68"><path
             id="path70"
             style="fill:#2f6bff;fill-opacity:1;fill-rule:nonzero;stroke:none"
             d="M 0,0 C 18.68,7.96 38,14.47 57.86,18.75 66.62,3.22 74.34,-12.98 79.61,-30.04 68.08,-30 56.54,-29.96 45.01,-30.06 33.95,-21.49 22.5,-13.4 10.44,-6.28 7.03,-4.07 3.25,-2.45 0,0" /></g></g></g></g></svg>